<?xml version="1.0" encoding="UTF-8"?>
<svg width="32.365" height="16.099" version="1.1" viewBox="0 0 8.5633 4.2596" xmlns="http://www.w3.org/2000/svg">
 <g transform="translate(-45.444 -39.967)">
  <path d="m53.16 39.996v4.1247h0.84805v-4.154h-0.84805v0.02929zm-5.5904-0.02638c-0.95016-0.01053-1.8906 0.67925-2.0691 1.6301-0.20765 0.89132 0.17135 1.9458 1.018 2.3639 0.85247 0.45709 1.9802 0.30711 2.6765-0.36733 0.06994-0.08583 0.27742-0.18036 0.11394-0.27353-0.16993-0.17703-0.33981-0.35412-0.50978-0.53112-0.37497 0.44278-0.98364 0.71959-1.5635 0.54684-0.54928-0.14377-0.95503-0.68364-0.92644-1.2527-0.0059-0.63842 0.52478-1.2494 1.1683-1.2711 0.50019-0.03682 0.99772 0.19895 1.3182 0.58782 0.20304-0.19352 0.40587-0.38726 0.6089-0.58079-0.43785-0.54741-1.1346-0.86919-1.8349-0.85205zm2.3595 0.0773c-0.0086 0.3465 0.0171 0.72395-0.01275 1.0512-0.11475 0.01473-0.31464-0.08327-0.36694 0.0693 0.0081 0.22061 0.0039 0.44365 0.0049 0.66534 0.1222 0.04396 0.29106-0.06023 0.38294 0.04054-0.01903 0.74679-0.0026 1.4987-0.0081 2.2474h0.84524v-2.2893c0.13407-0.02775 0.34615 0.09196 0.42954-0.06249 0.01001-0.22266 0.0011-0.44774 0.0041-0.67128-0.13778-0.05662-0.3113 0.06029-0.42954-0.03265-0.0099-0.34815-0.0011-0.69838-0.0041-1.0473h-0.84524v0.02929zm2.6937 0.96914c-0.21368 0.0072-0.4209 0.11156-0.55765 0.27526 0.03203-0.12663-0.07621-0.26263-0.20898-0.2105-0.17554 0.05481-0.38025-0.05639-0.54317 0.05341v2.9864h0.84188c0.02604-0.69444-0.05669-1.3994 0.06303-2.0848 0.0587-0.18368 0.2964-0.3579 0.46954-0.19947 0.17062-0.07445 0.13315-0.31354 0.2239-0.44976 0.05187-0.09528 0.13238-0.29515-0.02952-0.3318-0.08464-0.02267-0.17042-0.04348-0.25904-0.03882z" fill="#fff" style="font-feature-settings:normal;font-variant-caps:normal;font-variant-ligatures:normal;font-variant-numeric:normal"/>
 </g>
</svg>
